<svg width="28" height="20" viewBox="0 0 28 20" fill="none" xmlns="http://www.w3.org/2000/svg">
<path d="M7.756 11.4984H15.6925V19.1933H12.4213L12.0309 15.9034C11.6592 17.0806 10.9963 17.9542 10.0422 18.5241C9.08805 19.0941 7.92328 19.3791 6.54786 19.3791C5.29636 19.3791 4.18115 19.1003 3.20225 18.5427C2.23574 17.9851 1.47368 17.1859 0.916083 16.145C0.370872 15.1042 0.0982666 13.8899 0.0982666 12.502C0.0982666 10.284 0.761194 8.53068 2.08705 7.242C3.4129 5.95332 5.47603 5.30898 8.27643 5.30898C9.87489 5.30898 11.2813 5.5692 12.4956 6.08962C13.7223 6.61005 14.7632 7.41548 15.6182 8.5059C15.0606 8.7909 13.9702 9.36089 12.3469 10.2159L11.8823 10.4761C11.399 9.99284 10.8352 9.6335 10.1909 9.39806C9.54652 9.15024 8.86501 9.02633 8.14632 9.02633C6.95677 9.02633 6.0708 9.3423 5.48842 9.97425C4.90603 10.5938 4.61484 11.3621 4.61484 12.279C4.61484 13.2703 4.92462 14.0695 5.54418 14.6767C6.17613 15.2839 7.13644 15.5874 8.42512 15.5874C8.98273 15.5874 9.52174 15.5069 10.0422 15.3458C10.575 15.1847 11.0211 14.9059 11.3804 14.5094H7.756V11.4984Z" fill="#BABABA"/>
<path d="M27.9969 4.54787C26.0515 4.48591 24.1619 4.44874 22.328 4.43635V14.1386H17.6813V4.43635C15.835 4.44874 13.9516 4.48591 12.0309 4.54787V0.644656H27.9969V4.54787Z" fill="#BABABA"/>
</svg>
