<svg width="26" height="18" viewBox="0 0 26 18" fill="none" xmlns="http://www.w3.org/2000/svg">
<path fill-rule="evenodd" clip-rule="evenodd" d="M22.7748 0.696441C23.873 1.01022 24.6575 1.79467 24.9713 2.89291C25.5988 4.93248 25.5988 9.01163 25.5988 9.01163C25.5988 9.01163 25.5988 13.0908 25.1282 15.1304C24.8144 16.2286 24.0299 17.013 22.9317 17.3268C20.8921 17.7975 13.0476 17.7975 13.0476 17.7975C13.0476 17.7975 5.04616 17.7975 3.16347 17.3268C2.06524 17.013 1.28079 16.2286 0.967014 15.1304C0.496342 13.0908 0.496338 9.01163 0.496338 9.01163C0.496338 9.01163 0.496333 4.93248 0.810114 2.89291C1.12389 1.79467 1.90836 1.01022 3.00659 0.696441C5.04617 0.225769 12.8907 0.225769 12.8907 0.225769C12.8907 0.225769 20.8921 0.225769 22.7748 0.696441ZM10.5373 5.93553C10.5373 5.62841 10.8691 5.43586 11.1358 5.58824L16.519 8.66434C16.7877 8.81789 16.7877 9.20537 16.519 9.35893L11.1358 12.435C10.8691 12.5874 10.5373 12.3949 10.5373 12.0877V5.93553Z" fill="#BABABA"/>
</svg>
