<svg width="26" height="20" viewBox="0 0 26 20" fill="none" xmlns="http://www.w3.org/2000/svg">
<path d="M10.2615 13.7734C10.2615 14.8549 9.69812 16.6247 8.36456 16.6247C7.031 16.6247 6.4676 14.8549 6.4676 13.7734C6.4676 12.6919 7.031 10.9221 8.36456 10.9221C9.69812 10.9221 10.2615 12.6919 10.2615 13.7734ZM25.4527 11.1601C25.4527 12.8109 25.2873 14.56 24.5482 16.0762C22.5892 20.0401 17.2033 19.9469 13.3473 19.9469C9.42934 19.9469 3.72295 20.0867 1.68644 16.0762C0.931788 14.5755 0.642334 12.8109 0.642334 11.1601C0.642334 8.99188 1.3608 6.94265 2.7874 5.28154C2.51862 4.46392 2.3894 3.6049 2.3894 2.75623C2.3894 1.64365 2.64267 1.08477 3.14405 0.0756836C5.48552 0.0756836 6.98448 0.541416 8.76773 1.93861C10.2667 1.58155 11.807 1.42113 13.3525 1.42113C14.7481 1.42113 16.154 1.5712 17.5082 1.89722C19.2656 0.515542 20.7646 0.0756836 23.0802 0.0756836C23.5868 1.08477 23.8349 1.64365 23.8349 2.75623C23.8349 3.6049 23.7005 4.4484 23.4369 5.25049C24.8583 6.92713 25.4527 8.99188 25.4527 11.1601ZM22.1291 13.7734C22.1291 11.5017 20.7491 9.49901 18.3301 9.49901C17.3531 9.49901 16.4176 9.67495 15.4355 9.8095C14.6654 9.92852 13.8952 9.97509 13.1044 9.97509C12.3187 9.97509 11.5486 9.92852 10.7732 9.8095C9.80666 9.67495 8.86077 9.49901 7.87869 9.49901C5.45968 9.49901 4.0796 11.5017 4.0796 13.7734C4.0796 18.3169 8.23534 19.0155 11.8535 19.0155H14.3449C17.9786 19.0155 22.1291 18.3221 22.1291 13.7734ZM17.8597 10.9221C16.5261 10.9221 15.9627 12.6919 15.9627 13.7734C15.9627 14.8549 16.5261 16.6247 17.8597 16.6247C19.1933 16.6247 19.7567 14.8549 19.7567 13.7734C19.7567 12.6919 19.1933 10.9221 17.8597 10.9221Z" fill="#BABABA"/>
</svg>
